<?xml version="1.0" encoding="utf-8"?>
<!-- Generator: Adobe Illustrator 23.0.3, SVG Export Plug-In . SVG Version: 6.00 Build 0)  -->
<svg version="1.1" xmlns="http://www.w3.org/2000/svg" xmlns:xlink="http://www.w3.org/1999/xlink" x="0px" y="0px"
	 viewBox="0 0 256 256" style="enable-background:new 0 0 256 256;" xml:space="preserve">
<style type="text/css">
	.st0{fill:#878787;}
	.st1{fill:#F2E1D6;}
	.st2{fill:#FFFFFF;}
	.st3{fill:#F0C020;}
	.st4{fill:#F9E5AF;}
	.st5{fill:#72C1E8;}
	.st6{fill:#C5E5FF;}
	.st7{fill:#13BF6D;}
	.st8{fill:#76FFBA;}
	.st9{fill:#EFEFEF;}
	.st10{fill:#FC5D3D;}
	.st11{fill:#FFCBC2;}
	.st12{fill:#FFB69F;}
	.st13{fill:#AFAFAF;}
	.st14{fill:#7C7B7A;}
	.st15{fill:#D6C0B4;}
	.st16{fill:#7A7380;}
	.st17{fill:#F0AB20;}
	.st18{fill:#FBE0E2;}
	.st19{fill:#4C4945;}
	.st20{fill:#68B0D4;}
	.st21{fill:#B35034;}
	.st22{fill:#EDAF85;}
	.st23{fill:#139C6D;}
</style>
<g id="Layer_2">
</g>
<g id="Layer_1">
	<g>
		<g>
			<g>
				<path class="st9" d="M206.04,92.1c0,9.36-34.94,16.95-78.04,16.95s-78.04-7.59-78.04-16.95
					C49.96,69.78,206.04,69.78,206.04,92.1z"/>
			</g>
			<g>
				<path class="st5" d="M206.04,92.1v137.78c0,22.327-156.08,22.328-156.08,0V92.1c0,9.36,34.94,16.95,78.04,16.95
					S206.04,101.46,206.04,92.1z"/>
			</g>
			<g>
				<path class="st6" d="M58.629,228.768c-0.661-0.469-1.054-1.229-1.054-2.04V113.04c0-1.381,1.119-2.5,2.5-2.5s2.5,1.119,2.5,2.5
					v112.274c17.012,8.804,82.962,13.269,122.173,3.462c1.34-0.335,2.696,0.479,3.032,1.819c0.335,1.339-0.479,2.697-1.819,3.032
					C143.596,244.223,72.499,238.598,58.629,228.768z M192.576,229.149c-0.555-1.264,0.02-2.739,1.284-3.294
					c1.197-0.526,1.855-0.925,2.197-1.167c1.125-0.798,2.687-0.533,3.485,0.594c0.798,1.126,0.533,2.687-0.594,3.485
					c-0.772,0.547-1.808,1.108-3.079,1.666C194.609,230.988,193.132,230.416,192.576,229.149z"/>
			</g>
		</g>
		<path d="M69.07,93.019c-3.485,0-6.468,2.184-7.67,5.251c-2.388-0.891-8.94-3.628-8.94-6.17c0-3.283-5-3.266-5,0v137.78
			c0.02,2.35,1.27,4.52,3.72,6.46c8.002,6.265,26.855,9.342,36.93,10.63c1.36,0.17,2.63-0.81,2.8-2.16c0.17-1.37-0.8-2.62-2.16-2.8
			c-8.64-1.099-27.683-4.159-34.46-9.6c-1.69-1.34-1.84-2.21-1.83-2.53v-38.382c16.332,10.876,71.963,15.322,118.51,9.181
			c1.37-0.18,2.33-1.44,2.16-2.81c-0.18-1.35-1.46-2.33-2.81-2.15c-51.561,6.815-107.515,0.127-116.95-9.89
			c-0.81-0.88-0.91-1.4-0.91-1.71v-38.405c3.76,2.519,9.515,4.638,17.99,6.655c1.493,0.311,2.703-0.615,3-1.87
			c0.31-1.34-0.53-2.69-1.87-3c-4.866-1.122-14.983-3.843-18.31-7.54c-0.72-0.82-0.81-1.31-0.81-1.61v-38.87
			c15.045,10.005,56.934,12.063,75.54,12.07c18.437,0,60.306-1.991,75.54-12.07v38.87c0,0.91-0.54,1.78-1.75,2.8
			c-11.33,9.627-69.588,14.479-110.76,9.62c-1.36-0.16-2.61,0.83-2.78,2.19c-0.15,1.405,0.839,2.616,2.19,2.78
			c44.2,5.203,99.159-0.333,113.1-9.674v38.044v0.01c-0.01,0.58-0.19,1.06-0.65,1.67c-1.47,2.13-6.66,4.6-13.21,6.3
			c-1.359,0.377-2.118,1.751-1.77,3.06c0.36,1.32,1.712,2.14,3.07,1.77c4.189-1.132,8.964-2.715,12.56-5.104v38.064
			c0,0.31-0.1,0.83-0.91,1.7c-10.138,11.078-65.119,13.859-94.13,12.21c-1.39-0.09-2.57,0.99-2.64,2.36
			c-0.08,1.38,0.98,2.56,2.35,2.63c30.341,1.747,86.024-0.963,98.06-13.77c1.04-1.09,2.27-2.86,2.27-5.13V92.099
			c0-3.255-5-3.297-5,0c0,2.507-6.584,5.302-8.938,6.178c-1.199-3.071-4.184-5.258-7.672-5.258c-4.54,0-8.23,3.7-8.23,8.24v1.185
			c-5.325,1.002-11.264,1.841-17.63,2.495v-9.419c0-1.889-2-3.061-3.62-2.23l-5.4,2.71c-1.261,0.63-1.721,2.15-1.11,3.35
			c0.6,1.2,2.14,1.72,3.35,1.12c0.01,0,0.01-0.01,0.02-0.01l1.76-0.89v5.836c-6.325,0.535-12.994,0.892-19.84,1.05v-5.196
			c-0.01-4.54-3.7-8.24-8.23-8.24c-4.53,0-8.22,3.7-8.23,8.24v5.196c-6.464-0.146-12.747-0.466-18.74-0.949v-9.987
			c0-1.889-2-3.061-3.62-2.23l-5.39,2.71c-1.222,0.61-1.736,2.107-1.11,3.36c0.6,1.19,2.14,1.71,3.35,1.11
			c0.01-0.01,0.01-0.01,0.01-0.01l1.76-0.88v5.479c-6.742-0.664-13.042-1.544-18.73-2.623C77.3,96.051,73.327,93.028,69.07,93.019z
			 M69.07,98.019c1.67,0.009,3.23,1.302,3.23,3.382c-2.184-0.491-4.242-1.01-6.127-1.558C66.703,98.773,67.8,98.026,69.07,98.019z
			 M186.93,98.019c1.274,0,2.373,0.753,2.901,1.83c-1.897,0.551-3.948,1.074-6.131,1.566C183.7,99.303,185.275,98.019,186.93,98.019
			z M124.77,101.259c0-1.78,1.45-3.24,3.23-3.24c1.78,0,3.23,1.46,3.23,3.24v5.275c-2.483,0.021-4.119,0.018-6.46-0.002V101.259z"/>
		<path d="M98.53,64.269c-4.54,0-8.23,3.69-8.23,8.23v5.73c0,4.54,3.69,8.23,8.23,8.23s8.23-3.69,8.23-8.23v-5.73
			C106.76,67.959,103.07,64.269,98.53,64.269z M101.77,78.229c-0.01,1.78-1.46,3.23-3.24,3.23c-1.78,0-3.23-1.45-3.23-3.23v-5.73
			c0-1.78,1.45-3.23,3.23-3.23c1.78,0,3.23,1.45,3.24,3.23V78.229z"/>
		<path d="M94.77,38.009c0-1.88-1.979-3.06-3.62-2.24l-5.39,2.71c-1.263,0.631-1.733,2.134-1.12,3.36c0.6,1.2,2.15,1.72,3.36,1.11
			l1.77-0.89v10.64h-3.23c-1.38,0-2.5,1.13-2.5,2.5c0,1.38,1.12,2.5,2.5,2.5c1.877,0-5.143,0,11.46,0c1.38,0,2.5-1.12,2.5-2.5
			c0-1.37-1.12-2.5-2.5-2.5h-3.23V38.009z"/>
		<path d="M171.96,55.209c0-1.38-1.12-2.5-2.5-2.5h-3.23v-14.7c0-1.882-1.98-3.06-3.62-2.24l-5.39,2.71
			c-1.263,0.631-1.733,2.134-1.12,3.36c0.6,1.2,2.15,1.72,3.36,1.11l1.77-0.89v10.65H158c-1.38,0-2.5,1.12-2.5,2.5
			c0,1.37,1.12,2.49,2.5,2.49h11.46C170.84,57.699,171.96,56.579,171.96,55.209z"/>
		<path d="M89.4,6.749c-4.53,0-8.23,3.69-8.23,8.23v5.73c0,4.54,3.7,8.23,8.23,8.23c4.54,0,8.23-3.69,8.24-8.23v-5.73
			C97.63,10.439,93.94,6.749,89.4,6.749z M92.64,20.709c-0.01,1.78-1.46,3.23-3.24,3.24c-1.77-0.01-3.23-1.46-3.23-3.24v-5.73
			c0-1.78,1.46-3.23,3.23-3.23c1.78,0,3.23,1.45,3.24,3.23V20.709z"/>
		<path d="M158.36,14.979v5.73c0,4.54,3.7,8.23,8.24,8.24c4.53-0.01,8.23-3.7,8.23-8.24v-5.73c0-4.54-3.7-8.23-8.23-8.23
			C162.06,6.749,158.36,10.439,158.36,14.979z M163.36,14.979c0.01-1.78,1.46-3.23,3.24-3.23c1.78,0,3.23,1.45,3.23,3.23v5.73
			c0,1.78-1.45,3.23-3.23,3.24c-1.78-0.01-3.23-1.46-3.24-3.24V14.979z"/>
		<path d="M150.34,72.499v5.73c0,4.54,3.69,8.23,8.23,8.23s8.23-3.69,8.23-8.23v-5.73c0-4.54-3.69-8.23-8.23-8.23
			S150.34,67.959,150.34,72.499z M161.8,72.499v5.73c0,1.78-1.45,3.23-3.23,3.23s-3.23-1.45-3.24-3.23v-5.73
			c0.01-1.78,1.46-3.23,3.24-3.23S161.8,70.719,161.8,72.499z"/>
		<path d="M122.27,23.949c-1.38,0-2.5,1.12-2.5,2.5c0,1.37,1.12,2.5,2.5,2.5h11.46c1.38,0,2.5-1.13,2.5-2.5c0-1.38-1.12-2.5-2.5-2.5
			h-3.23v-14.7c0-1.883-1.982-3.059-3.62-2.24l-5.4,2.71c-1.23,0.62-1.73,2.13-1.11,3.36c0.6,1.2,2.15,1.72,3.36,1.11l1.77-0.89
			v10.65H122.27z"/>
		<path d="M122.27,81.459c-1.38,0-2.5,1.12-2.5,2.5s1.12,2.5,2.5,2.5h11.46c1.38,0,2.5-1.12,2.5-2.5s-1.12-2.5-2.5-2.5h-3.23v-14.69
			c0-1.883-1.982-3.059-3.62-2.24l-5.4,2.71c-1.243,0.633-1.727,2.126-1.11,3.36c0.6,1.19,2.15,1.72,3.36,1.11l1.77-0.89v10.64
			H122.27z"/>
		<path d="M119.77,49.469c0,4.54,3.69,8.23,8.23,8.23s8.23-3.69,8.23-8.23v-5.73c0-4.54-3.69-8.23-8.23-8.23s-8.23,3.69-8.23,8.23
			V49.469z M124.77,43.739c0-1.78,1.45-3.23,3.23-3.23c1.78,0,3.23,1.45,3.23,3.23v5.73c0,1.78-1.45,3.23-3.23,3.23
			c-1.78,0-3.23-1.45-3.23-3.23V43.739z"/>
		<path d="M54.87,7.009l-5.39,2.71c-1.229,0.615-1.748,2.103-1.12,3.36c0.61,1.2,2.15,1.72,3.36,1.11l1.77-0.89v10.65h-3.23
			c-1.38,0-2.5,1.12-2.5,2.5c0,1.37,1.12,2.5,2.5,2.5h11.46c1.38,0,2.5-1.13,2.5-2.5c0-1.38-1.12-2.5-2.5-2.5h-3.23v-14.7
			C58.49,7.376,56.516,6.186,54.87,7.009z"/>
		<path d="M194.28,23.949c-1.38,0-2.5,1.12-2.5,2.5c0,1.37,1.12,2.5,2.5,2.5h11.46c1.38,0,2.5-1.13,2.5-2.5c0-1.38-1.12-2.5-2.5-2.5
			h-3.23v-14.7c0-1.873-1.973-3.063-3.62-2.24l-5.4,2.71c-1.244,0.633-1.727,2.126-1.11,3.36c0.6,1.2,2.15,1.72,3.36,1.11l1.77-0.89
			v10.65H194.28z"/>
		<path d="M71.93,81.459H68.7v-14.69c0-1.881-1.979-3.06-3.62-2.24l-5.4,2.71c-1.242,0.632-1.728,2.124-1.11,3.36
			c0.6,1.2,2.15,1.71,3.36,1.11l1.77-0.89v10.64h-3.23c-1.38,0-2.5,1.12-2.5,2.5s1.12,2.5,2.5,2.5h11.46c1.38,0,2.5-1.12,2.5-2.5
			S73.31,81.459,71.93,81.459z"/>
		<path d="M184.07,81.459c-1.38,0-2.5,1.12-2.5,2.5s1.12,2.5,2.5,2.5h11.46c1.38,0,2.5-1.12,2.5-2.5s-1.12-2.5-2.5-2.5h-3.23v-14.69
			c0-1.885-1.983-3.058-3.62-2.24l-5.39,2.71c-1.283,0.642-1.725,2.161-1.12,3.35c0.6,1.21,2.15,1.72,3.36,1.12l1.77-0.89v10.64
			H184.07z"/>
		<path d="M70.76,49.469v-5.73c0-4.54-3.69-8.23-8.23-8.23s-8.23,3.69-8.23,8.23v5.73c0,4.54,3.69,8.23,8.23,8.23
			S70.76,54.009,70.76,49.469z M59.3,49.469v-5.73c0-1.78,1.45-3.23,3.23-3.23c1.78,0,3.23,1.45,3.23,3.23v5.73
			c0,1.78-1.45,3.23-3.23,3.23C60.75,52.699,59.3,51.249,59.3,49.469z"/>
		<path d="M185.24,43.739v5.73c0,4.54,3.69,8.23,8.23,8.23s8.23-3.69,8.23-8.23v-5.73c0-4.54-3.69-8.23-8.23-8.23
			S185.24,39.199,185.24,43.739z M190.24,43.739c0-1.78,1.45-3.23,3.23-3.23c1.78,0,3.23,1.45,3.23,3.23v5.73
			c0,1.78-1.45,3.23-3.23,3.23c-1.78,0-3.23-1.45-3.23-3.23V43.739z"/>
		<path d="M81.24,149.389c-1.36-0.22-2.65,0.71-2.88,2.06c-0.245,1.472,0.876,2.91,2.47,2.91c1.23,0,2.27-0.88,2.47-2.09
			C83.522,150.937,82.623,149.619,81.24,149.389z"/>
		<path d="M180.99,199.119c1.36-0.25,2.26-1.55,2.02-2.91c-0.25-1.33-1.57-2.25-2.91-2.01c-1.341,0.244-2.262,1.527-2.01,2.91
			C178.337,198.508,179.705,199.374,180.99,199.119z"/>
		<path d="M98.38,248.069c1.28,0,2.37-1,2.49-2.28c0.118-1.313-0.833-2.579-2.27-2.71c-1.35-0.13-2.59,0.91-2.71,2.27
			C95.75,246.826,96.939,248.069,98.38,248.069z"/>
	</g>
</g>
</svg>
