<svg id="line" xmlns="http://www.w3.org/2000/svg" viewBox="0 0 64 64"><defs><style>.cls-1{fill:#c4a2fc;}.cls-2{fill:#151a6a;}</style></defs><path class="cls-1" d="M62.48,41.12l-8.09-4.5,8.47-14.11A1,1,0,0,0,62,21H36a1,1,0,0,0-.91.58l-7,15a1,1,0,0,0,.43,1.3L38.66,43.4,29.11,61.53a1,1,0,0,0,1.42,1.31l32-20A1,1,0,0,0,62.48,41.12Z"/><path class="cls-2" d="M40,1H4A3,3,0,0,0,1,4V40a3,3,0,0,0,3,3H40a3,3,0,0,0,3-3V4A3,3,0,0,0,40,1Zm1,39a1,1,0,0,1-1,1H4a1,1,0,0,1-1-1V4A1,1,0,0,1,4,3H40a1,1,0,0,1,1,1Z"/><path class="cls-2" d="M36,5H8A3,3,0,0,0,5,8V24a3,3,0,0,0,3,3H36a3,3,0,0,0,3-3V8A3,3,0,0,0,36,5ZM24.82,25H19.18a3,3,0,0,1,5.64,0ZM37,24a1,1,0,0,1-1,1H26.9a5,5,0,0,0-2.27-3.24l5.4-8.4a14.91,14.91,0,0,1,3.22,2.72,1,1,0,0,0,1.5-1.32,16.67,16.67,0,0,0-3.64-3.08l.73-1.14a1,1,0,1,0-1.68-1.08l-.8,1.24A16.92,16.92,0,0,0,9.25,14.76a1,1,0,0,0,.09,1.41,1,1,0,0,0,1.41-.09,15,15,0,0,1,17.53-3.7l-5.59,8.69A4.83,4.83,0,0,0,17.1,25H8a1,1,0,0,1-1-1V8A1,1,0,0,1,8,7H36a1,1,0,0,1,1,1Z"/><path class="cls-2" d="M14,29a5,5,0,1,0,5,5A5,5,0,0,0,14,29Zm0,8a3,3,0,1,1,3-3A3,3,0,0,1,14,37Z"/><path class="cls-2" d="M30,29a5,5,0,1,0,5,5A5,5,0,0,0,30,29Zm0,8a3,3,0,1,1,3-3A3,3,0,0,1,30,37Z"/></svg>