<svg viewBox="0 0 16 16" fill="none" xmlns="http://www.w3.org/2000/svg" stroke="#000000" stroke-width="0.00016"><g id="SVGRepo_bgCarrier" stroke-width="0"></g><g id="SVGRepo_tracerCarrier" stroke-linecap="round" stroke-linejoin="round"></g><g id="SVGRepo_iconCarrier"> <path d="M6 10V6H10V10H6Z" fill="#00d4ff"></path> <path fill-rule="evenodd" clip-rule="evenodd" d="M3 2V0H5V2H7V0H9V2H11V0H13V2H14V3H16V5H14V7H16V9H14V11H16V13H14V14H13V16H11V14H9V16H7V14H5V16H3V14H2V13H0V11H2V9H0V7H2L2 5H0V3H2L2 2H3ZM4 4V12H12V4H4Z" fill="#00d4ff"></path> </g></svg>
